<?xml version="1.0" encoding="iso-8859-1"?>
<!-- Generator: Adobe Illustrator 19.0.0, SVG Export Plug-In . SVG Version: 6.00 Build 0)  -->
<svg xmlns="http://www.w3.org/2000/svg" xmlns:xlink="http://www.w3.org/1999/xlink" version="1.1" id="Layer_1" x="0px" y="0px" viewBox="0 0 511.987 511.987" style="enable-background:new 0 0 511.987 511.987;" xml:space="preserve" width="512px" height="512px">
<g>
	<g>
		<path d="M255.993,213.323c-5.891,0-10.664,4.773-10.664,10.664s4.773,10.672,10.664,10.672c5.89,0,10.663-4.781,10.663-10.672    C266.657,218.097,261.884,213.323,255.993,213.323z" fill="#434343"/>
	</g>
</g>
<g>
	<g>
		<path d="M319.993,149.325c-5.891,0-10.656,4.781-10.656,10.671c0,5.891,4.765,10.664,10.656,10.664    c5.89,0,10.655-4.773,10.655-10.664C330.647,154.106,325.882,149.325,319.993,149.325z" fill="#434343"/>
	</g>
</g>
<g>
	<g>
		<path d="M341.336,127.997c-5.906,0-10.688,4.773-10.688,10.664c0,5.89,4.782,10.664,10.688,10.664    c5.874,0,10.655-4.773,10.655-10.664C351.991,132.771,347.21,127.997,341.336,127.997z" fill="#434343"/>
	</g>
</g>
<g>
	<g>
		<path d="M362.647,106.661c-5.875,0-10.656,4.773-10.656,10.664s4.781,10.672,10.656,10.672c5.906,0,10.688-4.781,10.688-10.672    C373.335,111.435,368.553,106.661,362.647,106.661z" fill="#434343"/>
	</g>
</g>
<g>
	<g>
		<path d="M383.991,85.326c-5.891,0-10.656,4.781-10.656,10.671c0,5.891,4.766,10.664,10.656,10.664s10.656-4.773,10.656-10.664    C394.647,90.107,389.882,85.326,383.991,85.326z" fill="#434343"/>
	</g>
</g>
<g>
	<g>
		<path d="M405.335,63.998c-5.906,0-10.688,4.773-10.688,10.664c0,5.891,4.781,10.664,10.688,10.664    c5.874,0,10.655-4.773,10.655-10.664C415.99,68.772,411.209,63.998,405.335,63.998z" fill="#434343"/>
	</g>
</g>
<g>
	<g>
		<path d="M426.646,42.663c-5.875,0-10.656,4.773-10.656,10.664s4.781,10.672,10.656,10.672c5.905,0,10.687-4.781,10.687-10.672    C437.332,47.436,432.552,42.663,426.646,42.663z" fill="#434343"/>
	</g>
</g>
<g>
	<g>
		<path d="M447.988,21.327c-5.891,0-10.656,4.781-10.656,10.671c0,5.891,4.766,10.664,10.656,10.664s10.656-4.773,10.656-10.664    C458.645,26.109,453.879,21.327,447.988,21.327z" fill="#434343"/>
	</g>
</g>
<g>
	<g>
		<path d="M469.332,0c-5.906,0-10.688,4.773-10.688,10.664s4.781,10.664,10.688,10.664c5.875,0,10.656-4.773,10.656-10.664    S475.207,0,469.332,0z" fill="#434343"/>
	</g>
</g>
<g>
	<g>
		<circle cx="191.995" cy="159.993" r="10.668" fill="#434343"/>
	</g>
</g>
<g>
	<g>
		<circle cx="170.66" cy="138.661" r="10.664" fill="#434343"/>
	</g>
</g>
<g>
	<g>
		<path d="M149.332,106.661c-5.891,0-10.672,4.773-10.672,10.664s4.781,10.672,10.672,10.672s10.664-4.781,10.664-10.672    C159.996,111.435,155.223,106.661,149.332,106.661z" fill="#434343"/>
	</g>
</g>
<g>
	<g>
		<circle cx="127.996" cy="95.993" r="10.668" fill="#434343"/>
	</g>
</g>
<g>
	<g>
		<circle cx="106.66" cy="74.662" r="10.664" fill="#434343"/>
	</g>
</g>
<g>
	<g>
		<path d="M85.334,42.663c-5.891,0-10.672,4.773-10.672,10.664s4.781,10.672,10.672,10.672c5.891,0,10.664-4.781,10.664-10.672    C95.996,47.436,91.223,42.663,85.334,42.663z" fill="#434343"/>
	</g>
</g>
<g>
	<g>
		<circle cx="63.998" cy="31.995" r="10.667" fill="#434343"/>
	</g>
</g>
<g>
	<g>
		<path d="M42.663,0c-5.891,0-10.664,4.773-10.664,10.664s4.773,10.664,10.664,10.664s10.671-4.774,10.671-10.665    C53.334,4.773,48.553,0,42.663,0z" fill="#434343"/>
	</g>
</g>
<g>
	<g>
		<path d="M328.461,195.636c-6.577-3.031-13.78-5.609-21.437-7.711c1.438-1.82,2.312-4.109,2.312-6.602    c0-5.89-4.781-10.664-10.688-10.664c-5.875,0-10.656,4.773-10.656,10.664c0,0.883,0.125,1.734,0.312,2.555    c-10.375-1.672-21.25-2.555-32.312-2.555s-21.937,0.883-32.32,2.555c0.203-0.82,0.32-1.672,0.32-2.555    c0-5.89-4.773-10.664-10.664-10.664s-10.672,4.773-10.672,10.664c0,2.492,0.867,4.781,2.297,6.602    c-7.648,2.102-14.851,4.68-21.429,7.711c-22.054,10.179-34.194,24.038-34.194,39.022v223.987c0,15,12.14,28.844,34.194,39.03    c20,9.219,45.733,14.312,72.467,14.312c26.733,0,52.468-5.094,72.467-14.312c22.062-10.187,34.187-24.03,34.187-39.03V234.659    C362.647,219.674,350.522,205.815,328.461,195.636z M341.336,458.645c0,4.781-6.75,12.703-21.812,19.656    c-17,7.844-40.156,12.344-63.53,12.344c-23.367,0-46.522-4.5-63.53-12.344c-15.062-6.953-21.804-14.875-21.804-19.656V234.659    c0-4.773,6.742-12.695,21.804-19.648c17.007-7.852,40.163-12.352,63.53-12.352c3.578,0,7.14,0.117,10.679,0.32    c0.18,5.742,4.875,10.344,10.664,10.344c4.922,0,9.062-3.352,10.281-7.891c11.797,2.102,22.75,5.352,31.906,9.578    c15.062,6.953,21.812,14.875,21.812,19.648V458.645z" fill="#434343"/>
	</g>
</g>
<g>
	<g>
		<path d="M298.649,266.657c-5.875,0-10.656,4.773-10.656,10.664v159.996c0,5.891,4.781,10.672,10.656,10.672    c5.906,0,10.688-4.781,10.688-10.672V277.321C309.337,271.431,304.556,266.657,298.649,266.657z" fill="#434343"/>
	</g>
</g>
<g>
	<g>
		<path d="M255.993,266.657c-5.891,0-10.664,4.773-10.664,10.664v159.996c0,5.891,4.773,10.672,10.664,10.672    c5.89,0,10.663-4.781,10.663-10.672V277.321C266.657,271.431,261.884,266.657,255.993,266.657z" fill="#434343"/>
	</g>
</g>
<g>
	<g>
		<path d="M213.331,266.657c-5.891,0-10.672,4.773-10.672,10.664v159.996c0,5.891,4.781,10.672,10.672,10.672    s10.663-4.781,10.663-10.672V277.321C223.993,271.431,219.222,266.657,213.331,266.657z" fill="#434343"/>
	</g>
</g>
<g>
</g>
<g>
</g>
<g>
</g>
<g>
</g>
<g>
</g>
<g>
</g>
<g>
</g>
<g>
</g>
<g>
</g>
<g>
</g>
<g>
</g>
<g>
</g>
<g>
</g>
<g>
</g>
<g>
</g>
</svg>
