<?xml version="1.0" encoding="iso-8859-1"?>
<!-- Generator: Adobe Illustrator 17.1.0, SVG Export Plug-In . SVG Version: 6.00 Build 0)  -->
<!DOCTYPE svg PUBLIC "-//W3C//DTD SVG 1.1//EN" "http://www.w3.org/Graphics/SVG/1.1/DTD/svg11.dtd">
<svg xmlns="http://www.w3.org/2000/svg" xmlns:xlink="http://www.w3.org/1999/xlink" version="1.1" id="Capa_1" x="0px" y="0px" viewBox="0 0 206.845 206.845" style="enable-background:new 0 0 206.845 206.845;" xml:space="preserve" width="512px" height="512px">
<path d="M87.143,152.965c-15.23,0.001-39.424-8.729-41.756-9.584l-42.881,0.103c-0.002,0-0.004,0-0.006,0  c-0.699,0-1.365-0.292-1.839-0.807c-0.475-0.516-0.712-1.206-0.652-1.905l3.723-43.845C5.26,83.931,12.659,74.919,23.534,72.74  l44.725-8.958c-0.515-0.969-0.799-2.075-0.783-3.246c0.025-1.804,0.752-3.489,2.045-4.746c1.269-1.234,2.936-1.91,4.702-1.91  c0.032,0,0.065,0,0.098,0l4.499,0.063c3.722,0.053,6.707,3.123,6.655,6.844l0,0c-0.017,1.171-0.328,2.292-0.898,3.278l44.255,9.268  c15.388,3.256,22.821,15.849,24.647,26.548l4.373,21.073c19.032,3.263,34.444,8.552,41.139,11.066  c1.381,0.456,2.516,0.909,3.449,1.35c0.04,0.017,0.072,0.03,0.097,0.04c0.116,0.049,0.227,0.105,0.331,0.168  c3.747,1.881,3.895,3.521,3.961,4.265c0.402,4.471-6.745,5.113-10.18,5.423c-22.545,2.022-52.969-5.961-58.019-7.346  c-9.796,2.626-18.484,6.323-25.986,9.515c-8.602,3.66-16.031,6.821-22.561,7.408C89.151,152.926,88.166,152.965,87.143,152.965z   M52.678,140.598c9.056,2.972,26.746,8.19,36.958,7.264c5.744-0.516,12.837-3.534,21.05-7.028  c7.824-3.329,16.904-7.192,27.243-9.906c0.05-0.015,0.101-0.028,0.151-0.04c5.369-1.401,11.076-2.491,17.124-3.035  c3.039-0.272,6.243-0.412,9.53-0.422c-6.938-1.456-14.531-2.711-22.443-3.47c-9.883-0.797-19.856-0.81-29.805-0.039  c-26.496,2.714-47.585,10.923-58.012,15.693C53.859,139.943,53.261,140.271,52.678,140.598z M149.918,133.529  c11.798,2.628,31.183,6.118,46.283,4.755c1.668-0.149,2.895-0.332,3.79-0.51c-0.627-0.25-1.718-0.674-3.219-1.225  c-8.404-2.536-25.177-5.153-41.121-3.718C153.707,133.007,151.796,133.242,149.918,133.529z M76.51,67.487  c-0.856,0-1.718,0.086-2.563,0.255l-49.431,9.9C15.87,79.375,9.96,86.772,8.705,97.431l-3.483,41.046l38.399-0.092l0.134-34.569  c0-9.641,1.975-21.614,17.376-28.606c0.035-0.017,0.071-0.031,0.107-0.046l12.368-4.93c1.285-0.512,2.736,0.115,3.248,1.396  c0.512,1.283-0.114,2.737-1.396,3.248l-12.313,4.907c-12.645,5.765-14.391,14.96-14.391,24.04l-0.128,33.008  c1.151-0.574,2.555-1.251,4.191-1.999c12.363-6.5,31.004-13.371,56.907-15.699l0,0c0.766-0.068,1.53-0.133,2.297-0.192  c0.727-0.074,1.461-0.145,2.196-0.211c10.803-0.971,21.609-0.591,31.758,0.538c2.198,0.215,4.39,0.468,6.576,0.758l-3.986-19.219  c-0.769-4.494-4.488-19.14-20.766-22.583L76.531,67.487C76.524,67.487,76.517,67.487,76.51,67.487z M74.225,58.88  c-0.458,0-0.89,0.175-1.219,0.495c-0.336,0.326-0.523,0.763-0.53,1.23c-0.014,0.964,0.761,1.76,1.726,1.773l4.5,0.063  c0.008,0,0.017,0,0.025,0c0.458,0,0.89-0.175,1.219-0.495c0.335-0.325,0.523-0.762,0.529-1.229c0-0.001,0-0.001,0-0.001  c0.007-0.468-0.169-0.909-0.495-1.245c-0.325-0.335-0.763-0.522-1.23-0.529L74.25,58.88C74.242,58.88,74.234,58.88,74.225,58.88z" fill="#4c7799"/>
<g>
</g>
<g>
</g>
<g>
</g>
<g>
</g>
<g>
</g>
<g>
</g>
<g>
</g>
<g>
</g>
<g>
</g>
<g>
</g>
<g>
</g>
<g>
</g>
<g>
</g>
<g>
</g>
<g>
</g>
</svg>
